<?xml version="1.0" encoding="UTF-8"?>
<svg id="Layer_1" data-name="Layer 1" xmlns="http://www.w3.org/2000/svg" viewBox="0 0 360 344">
  <defs>
    <style>
      .cls-1 {
        fill: #d27528;
      }

      .cls-2 {
        fill: #231f20;
      }
    </style>
  </defs>
  <ellipse class="cls-1" cx="183.13" cy="172" rx="163.6" ry="167.27"/>
  <path class="cls-2" d="M158.22,263.86h4.6c7.81,0,10.57-2.35,10.57-14.1v-126.43c0-11.28-2.76-14.1-10.57-14.1h-4.6v-3.05h43.44c22.99,0,40.68,12.22,40.68,41.12,0,30.79-20.23,43.71-42.98,43.71h-14.71v58.75c0,11.28,2.76,14.1,11.26,14.1h7.13v3.05h-44.82v-3.05ZM229.71,148.24c0-16.21-2.07-39.01-31.26-39.01h-2.53c-8.04,0-11.26,2.58-11.26,13.87v64.86h12.64c30.34,0,32.41-26.56,32.41-39.72Z"/>
  <path class="cls-2" d="M108.32,191.03c0-11.52,4.83-18.33,10.57-18.33,5.29,0,8.73,3.76,8.73,10.81,0,6.11-2.99,10.81-8.5,10.81-6.44,0-7.13-7.75-7.13.71,0,11.28,7.13,21.62,19.31,21.62,16.55,0,17.01-18.57,17.01-42.3v-102.46c0-11.98-2.76-13.87-10.8-13.87h-5.06v-3.05h42.29v3.05h-4.14c-7.81,0-11.03,1.88-11.03,13.87v98.7c0,34.31-10.57,48.17-28.27,48.17-14.94,0-22.99-11.04-22.99-27.73Z"/>
  <g>
    <g>
      <path class="cls-2" d="M224.47,257.98h-.13c-.57,2.79-1.85,5.08-4.14,5.08-3.17,0-5.81-3.96-5.81-9.67s2.86-9.85,5.99-9.85c1.85,0,3.35,1.84,4.05,4.95h.18c-.09-1.89-.04-4.41-.04-6.66v-7.02c0-2.12-.35-2.57-1.81-2.57h-.88v-.4l4.67-.72v28.35c0,2.2.09,2.47,1.14,2.56l.88.09v.41c-1.28.18-4.18.67-4.18.67l.09-5.22ZM224.43,253.39c0-7.29-2.55-9.36-4.09-9.36-2.91,0-3.57,4.68-3.57,9.36,0,5.04.66,9.18,3.52,9.18s4.14-4.68,4.14-9.18Z"/>
      <path class="cls-2" d="M229.71,253.44c0-6.07,2.91-10.08,6.03-10.08,2.29,0,5.28,2.34,5.28,8.05,0,.45-.04,1.17-.09,1.39h-8.89c0,4.68.7,9.49,4.05,9.49,2.33,0,3.61-1.62,4.45-3.87l.44.22c-.88,2.47-2.38,4.54-5.11,4.54-3.43,0-6.16-3.51-6.16-9.76ZM238.78,250.42c0-3.46-.7-6.66-3.08-6.66-2.6,0-3.52,3.6-3.65,8.46h5.02c1.45,0,1.72-.32,1.72-1.8Z"/>
      <path class="cls-2" d="M244.72,261.58c-.48,0-.79.45-1.06,1.44h-.4v-7.7h.35c.48,4.63,2.55,7.2,5.06,7.2s3.48-1.75,3.48-3.69c0-2.16-.97-3.06-4.18-4.54-2.91-1.35-4.53-2.48-4.53-5.9,0-3.1,1.76-4.81,4.01-4.81,2.03,0,2.64,1.21,3.52,1.21.48,0,.79-.36,1.01-1.12h.35v7.06h-.35c-.48-3.96-2.07-6.61-4.53-6.61-1.67,0-3.08,1.26-3.08,3.24s.79,2.92,4.05,4.41c3.21,1.44,4.71,2.88,4.71,6.17,0,3.1-1.76,5.13-4.49,5.13-2.29,0-3.26-1.49-3.92-1.49Z"/>
      <path class="cls-2" d="M254.67,262.17h.44c1.5,0,1.76-.36,1.76-2.47v-12.73c0-2.29-.18-2.61-1.76-2.61h-.44v-.36l4.18-.32v16.02c0,2.16.31,2.47,1.76,2.47h.44v.45h-6.38v-.45ZM255.68,235.71c0-.99.75-1.75,1.72-1.75s1.72.77,1.72,1.75-.79,1.75-1.72,1.75-1.72-.76-1.72-1.75Z"/>
      <path class="cls-2" d="M261.62,267.12c.04-2.52,2.33-4.5,5.15-4.82-1.89-.04-3.87-.67-3.87-2.65,0-1.4.88-2.57,2.2-3.46-1.41-1.21-2.42-3.38-2.42-5.8,0-4.14,2.25-7.02,5.33-7.02,1.67,0,2.86.63,4.01,2.34.48-1.12,1.1-2.12,2.16-2.12s1.72.85,1.72,2.07c0,.81-.44,1.66-1.14,1.66-.66,0-1.1-.49-1.14-1.48-.04-.76.04-1.21-.26-1.21-.35,0-.66.5-1.06,1.48.79,1.53,1.01,2.83,1.01,4.28,0,4-2.33,7.02-5.33,7.02-.84,0-1.76-.27-2.55-.9-.97.54-1.54,1.44-1.54,2.39s.79,1.66,4.23,1.71c2.42.05,6.91.32,6.91,5.22,0,3.69-3.43,6.07-7.09,6.07s-6.38-1.39-6.3-4.77ZM274.25,266.44c0-2.34-1.8-3.92-6.12-3.92-4.05,0-5.15,2.61-5.15,4.5,0,3.19,2.6,4.32,5.15,4.32,3.35,0,6.12-2.21,6.12-4.9ZM271.13,250.38c0-1.98-.18-6.62-3.12-6.62s-3.13,4.32-3.13,6.62c0,2.79.4,6.61,3.13,6.61s3.12-3.87,3.12-6.61Z"/>
      <path class="cls-2" d="M276.54,262.17h.31c1.45,0,1.76-.31,1.76-2.52v-12.64c0-2.29-.31-2.61-1.76-2.61h-.31v-.4l4.05-.32-.18,5.26h.04c.75-3.51,2.51-5.31,4.62-5.31,2.55,0,4.14,1.62,4.14,6.12v9.9c0,2.21.44,2.52,1.58,2.52h.26v.45h-6.08v-.45h.35c1.45,0,1.85-.36,1.85-2.52v-11.29c0-3.06-1.1-3.73-2.47-3.73-2.6,0-4.14,3.42-4.14,7.2v7.83c0,2.16.35,2.52,1.8,2.52h.31v.45h-6.16v-.45Z"/>
    </g>
    <g>
      <path class="cls-2" d="M223.15,230.72h.31c1.45,0,1.76-.45,1.76-2.47v-15.12h-2.07v-.58h2.07v-3.46c0-5.67,2.29-9.32,5.37-9.32,1.8,0,2.73,1.35,2.73,2.93,0,1.26-.7,1.75-1.23,1.75-.84,0-1.28-.54-1.28-1.49,0-1.04.62-1.49.62-2.02,0-.5-.53-.72-1.06-.72-2.47,0-3.17,3.83-3.17,8.33v4h3.48v.58h-3.48v15.12c0,2.02.35,2.47,1.8,2.47h.62v.45h-6.47v-.45Z"/>
      <path class="cls-2" d="M231.25,221.81c0-5.8,3.04-9.9,6.12-9.9s6.08,4,6.08,9.81-2.82,10.03-6.03,10.03-6.16-4.41-6.16-9.94ZM241.16,221.86c0-5.08-.75-9.45-3.79-9.45s-3.74,4.28-3.74,9.36.66,9.49,3.79,9.49,3.74-4.41,3.74-9.4Z"/>
      <path class="cls-2" d="M246.61,226.09v-12.96h-2.25v-.54c2.11-.45,3.65-2.34,3.79-8.46h.48v8.42h4.23v.58h-4.23v13.36c0,3.06.53,4.5,1.98,4.5,1.63,0,2.68-2.52,2.68-6.25h.53c0,4.41-1.36,7.02-3.48,7.02-2.38,0-3.74-1.84-3.74-5.67Z"/>
      <path class="cls-2" d="M254.97,221.81c0-5.8,3.04-9.9,6.12-9.9s6.08,4,6.08,9.81-2.82,10.03-6.03,10.03-6.16-4.41-6.16-9.94ZM264.88,221.86c0-5.08-.75-9.45-3.79-9.45s-3.74,4.28-3.74,9.36.66,9.49,3.79,9.49,3.74-4.41,3.74-9.4Z"/>
    </g>
    <rect class="cls-2" x="214.33" y="230.28" width="67.29" height="2" transform="translate(-2.92 3.17) rotate(-.73)"/>
  </g>
</svg>